<?xml version="1.0" encoding="UTF-8" standalone="no"?>
<!DOCTYPE svg PUBLIC "-//W3C//DTD SVG 1.1//EN"
 "http://www.w3.org/Graphics/SVG/1.1/DTD/svg11.dtd">
<!-- Generated by graphviz version 12.2.1 (0)
 -->
<!-- Title: architecture Pages: 1 -->
<svg width="1440pt" height="782pt"
 viewBox="0.00 0.00 1439.50 781.50" xmlns="http://www.w3.org/2000/svg" xmlns:xlink="http://www.w3.org/1999/xlink">
<g id="graph0" class="graph" transform="scale(1 1) rotate(0) translate(4 777.5)">
<title>architecture</title>
<polygon fill="white" stroke="none" points="-4,4 -4,-777.5 1435.5,-777.5 1435.5,4 -4,4"/>
<!-- cli -->
<g id="node1" class="node">
<title>cli</title>
<path fill="linen" stroke="#595959" d="M487.5,-773.5C487.5,-773.5 438.5,-773.5 438.5,-773.5 432.5,-773.5 426.5,-767.5 426.5,-761.5 426.5,-761.5 426.5,-744.5 426.5,-744.5 426.5,-738.5 432.5,-732.5 438.5,-732.5 438.5,-732.5 487.5,-732.5 487.5,-732.5 493.5,-732.5 499.5,-738.5 499.5,-744.5 499.5,-744.5 499.5,-761.5 499.5,-761.5 499.5,-767.5 493.5,-773.5 487.5,-773.5"/>
<text text-anchor="middle" x="463" y="-756.2" font-family="Times,serif" font-size="14.00">cli</text>
<text text-anchor="middle" x="463" y="-739.7" font-family="Times,serif" font-size="14.00">9 modules</text>
</g>
<!-- architecture -->
<g id="node4" class="node">
<title>architecture</title>
<path fill="linen" stroke="#595959" d="M103.88,-680C103.88,-680 48.12,-680 48.12,-680 42.12,-680 36.12,-674 36.12,-668 36.12,-668 36.12,-651 36.12,-651 36.12,-645 42.12,-639 48.12,-639 48.12,-639 103.88,-639 103.88,-639 109.88,-639 115.88,-645 115.88,-651 115.88,-651 115.88,-668 115.88,-668 115.88,-674 109.88,-680 103.88,-680"/>
<text text-anchor="middle" x="76" y="-662.7" font-family="Times,serif" font-size="14.00">architecture</text>
<text text-anchor="middle" x="76" y="-646.2" font-family="Times,serif" font-size="14.00">1 modules</text>
</g>
<!-- cli&#45;&gt;architecture -->
<g id="edge3" class="edge">
<title>cli&#45;&gt;architecture</title>
<path fill="none" stroke="#737373" d="M426.24,-743.31C356.92,-726.92 206.72,-691.41 127.42,-672.66"/>
<polygon fill="#737373" stroke="#737373" points="128.27,-669.26 117.73,-670.37 126.66,-676.07 128.27,-669.26"/>
</g>
<!-- output -->
<g id="node10" class="node">
<title>output</title>
<path fill="linen" stroke="#595959" d="M279.5,-680C279.5,-680 230.5,-680 230.5,-680 224.5,-680 218.5,-674 218.5,-668 218.5,-668 218.5,-651 218.5,-651 218.5,-645 224.5,-639 230.5,-639 230.5,-639 279.5,-639 279.5,-639 285.5,-639 291.5,-645 291.5,-651 291.5,-651 291.5,-668 291.5,-668 291.5,-674 285.5,-680 279.5,-680"/>
<text text-anchor="middle" x="255" y="-662.7" font-family="Times,serif" font-size="14.00">output</text>
<text text-anchor="middle" x="255" y="-646.2" font-family="Times,serif" font-size="14.00">4 modules</text>
</g>
<!-- cli&#45;&gt;output -->
<g id="edge9" class="edge">
<title>cli&#45;&gt;output</title>
<path fill="none" stroke="#737373" d="M426.29,-735.85C391.65,-720.61 339.54,-697.69 301.9,-681.13"/>
<polygon fill="#737373" stroke="#737373" points="303.64,-678.07 293.08,-677.25 300.82,-684.48 303.64,-678.07"/>
</g>
<!-- quality -->
<g id="node11" class="node">
<title>quality</title>
<path fill="linen" stroke="#595959" d="M628.88,-680C628.88,-680 573.12,-680 573.12,-680 567.12,-680 561.12,-674 561.12,-668 561.12,-668 561.12,-651 561.12,-651 561.12,-645 567.12,-639 573.12,-639 573.12,-639 628.88,-639 628.88,-639 634.88,-639 640.88,-645 640.88,-651 640.88,-651 640.88,-668 640.88,-668 640.88,-674 634.88,-680 628.88,-680"/>
<text text-anchor="middle" x="601" y="-662.7" font-family="Times,serif" font-size="14.00">quality</text>
<text text-anchor="middle" x="601" y="-646.2" font-family="Times,serif" font-size="14.00">13 modules</text>
</g>
<!-- cli&#45;&gt;quality -->
<g id="edge11" class="edge">
<title>cli&#45;&gt;quality</title>
<path fill="none" stroke="#737373" d="M492.94,-732.15C513.11,-718.78 539.91,-701.01 561.77,-686.51"/>
<polygon fill="#737373" stroke="#737373" points="563.45,-689.59 569.85,-681.15 559.58,-683.76 563.45,-689.59"/>
<text text-anchor="middle" x="547.74" y="-701.2" font-family="Times,serif" font-size="14.00">4</text>
</g>
<!-- metrics -->
<g id="node14" class="node">
<title>metrics</title>
<path fill="linen" stroke="#595959" d="M409.5,-493C409.5,-493 360.5,-493 360.5,-493 354.5,-493 348.5,-487 348.5,-481 348.5,-481 348.5,-464 348.5,-464 348.5,-458 354.5,-452 360.5,-452 360.5,-452 409.5,-452 409.5,-452 415.5,-452 421.5,-458 421.5,-464 421.5,-464 421.5,-481 421.5,-481 421.5,-487 415.5,-493 409.5,-493"/>
<text text-anchor="middle" x="385" y="-475.7" font-family="Times,serif" font-size="14.00">metrics</text>
<text text-anchor="middle" x="385" y="-459.2" font-family="Times,serif" font-size="14.00">5 modules</text>
</g>
<!-- cli&#45;&gt;metrics -->
<g id="edge8" class="edge">
<title>cli&#45;&gt;metrics</title>
<path fill="none" stroke="#737373" d="M457.52,-732.42C444.15,-684.69 409.81,-562.09 393.65,-504.39"/>
<polygon fill="#737373" stroke="#737373" points="397.06,-503.58 390.99,-494.89 390.32,-505.47 397.06,-503.58"/>
<text text-anchor="middle" x="429.17" y="-607.7" font-family="Times,serif" font-size="14.00">4</text>
</g>
<!-- graph -->
<g id="node15" class="node">
<title>graph</title>
<path fill="linen" stroke="#595959" d="M320.5,-399.5C320.5,-399.5 271.5,-399.5 271.5,-399.5 265.5,-399.5 259.5,-393.5 259.5,-387.5 259.5,-387.5 259.5,-370.5 259.5,-370.5 259.5,-364.5 265.5,-358.5 271.5,-358.5 271.5,-358.5 320.5,-358.5 320.5,-358.5 326.5,-358.5 332.5,-364.5 332.5,-370.5 332.5,-370.5 332.5,-387.5 332.5,-387.5 332.5,-393.5 326.5,-399.5 320.5,-399.5"/>
<text text-anchor="middle" x="296" y="-382.2" font-family="Times,serif" font-size="14.00">graph</text>
<text text-anchor="middle" x="296" y="-365.7" font-family="Times,serif" font-size="14.00">4 modules</text>
</g>
<!-- cli&#45;&gt;graph -->
<g id="edge7" class="edge">
<title>cli&#45;&gt;graph</title>
<path fill="none" stroke="#737373" d="M451.84,-732.15C449,-726.56 446.15,-720.4 444,-714.5 429.36,-674.4 426.92,-663.41 422,-621 413.33,-546.31 468.59,-516.54 430,-452 411.41,-420.91 374.28,-402.47 343.81,-392.04"/>
<polygon fill="#737373" stroke="#737373" points="344.96,-388.74 334.37,-389.02 342.82,-395.4 344.96,-388.74"/>
<text text-anchor="middle" x="436.17" y="-560.95" font-family="Times,serif" font-size="14.00">6</text>
</g>
<!-- parse -->
<g id="node16" class="node">
<title>parse</title>
<path fill="linen" stroke="#595959" d="M483.88,-306C483.88,-306 428.12,-306 428.12,-306 422.12,-306 416.12,-300 416.12,-294 416.12,-294 416.12,-277 416.12,-277 416.12,-271 422.12,-265 428.12,-265 428.12,-265 483.88,-265 483.88,-265 489.88,-265 495.88,-271 495.88,-277 495.88,-277 495.88,-294 495.88,-294 495.88,-300 489.88,-306 483.88,-306"/>
<text text-anchor="middle" x="456" y="-288.7" font-family="Times,serif" font-size="14.00">parse</text>
<text text-anchor="middle" x="456" y="-272.2" font-family="Times,serif" font-size="14.00">11 modules</text>
</g>
<!-- cli&#45;&gt;parse -->
<g id="edge10" class="edge">
<title>cli&#45;&gt;parse</title>
<path fill="none" stroke="#737373" d="M463.63,-732.15C463.78,-726.45 463.92,-720.23 464,-714.5 464.1,-707.17 464.07,-705.33 464,-698 462.62,-555.78 458.55,-385.94 456.81,-317.42"/>
<polygon fill="#737373" stroke="#737373" points="460.31,-317.62 456.56,-307.71 453.32,-317.8 460.31,-317.62"/>
<text text-anchor="middle" x="468.19" y="-514.2" font-family="Times,serif" font-size="14.00">14</text>
</g>
<!-- config -->
<g id="node17" class="node">
<title>config</title>
<path fill="linen" stroke="#595959" d="M564.5,-212.5C564.5,-212.5 515.5,-212.5 515.5,-212.5 509.5,-212.5 503.5,-206.5 503.5,-200.5 503.5,-200.5 503.5,-183.5 503.5,-183.5 503.5,-177.5 509.5,-171.5 515.5,-171.5 515.5,-171.5 564.5,-171.5 564.5,-171.5 570.5,-171.5 576.5,-177.5 576.5,-183.5 576.5,-183.5 576.5,-200.5 576.5,-200.5 576.5,-206.5 570.5,-212.5 564.5,-212.5"/>
<text text-anchor="middle" x="540" y="-195.2" font-family="Times,serif" font-size="14.00">config</text>
<text text-anchor="middle" x="540" y="-178.7" font-family="Times,serif" font-size="14.00">6 modules</text>
</g>
<!-- cli&#45;&gt;config -->
<g id="edge4" class="edge">
<title>cli&#45;&gt;config</title>
<path fill="none" stroke="#737373" d="M499.66,-747.57C561.85,-737.77 685.52,-707.75 729,-621 788.15,-502.99 788.3,-440.38 726,-324 696.4,-268.71 631.97,-231.62 587.3,-211.41"/>
<polygon fill="#737373" stroke="#737373" points="588.92,-208.3 578.35,-207.48 586.11,-214.71 588.92,-208.3"/>
<text text-anchor="middle" x="776.43" y="-467.45" font-family="Times,serif" font-size="14.00">8</text>
</g>
<!-- formats -->
<g id="node18" class="node">
<title>formats</title>
<path fill="linen" stroke="#595959" d="M675.5,-119C675.5,-119 626.5,-119 626.5,-119 620.5,-119 614.5,-113 614.5,-107 614.5,-107 614.5,-90 614.5,-90 614.5,-84 620.5,-78 626.5,-78 626.5,-78 675.5,-78 675.5,-78 681.5,-78 687.5,-84 687.5,-90 687.5,-90 687.5,-107 687.5,-107 687.5,-113 681.5,-119 675.5,-119"/>
<text text-anchor="middle" x="651" y="-101.7" font-family="Times,serif" font-size="14.00">formats</text>
<text text-anchor="middle" x="651" y="-85.2" font-family="Times,serif" font-size="14.00">1 modules</text>
</g>
<!-- cli&#45;&gt;formats -->
<g id="edge6" class="edge">
<title>cli&#45;&gt;formats</title>
<path fill="none" stroke="#737373" d="M499.91,-749.68C586.61,-743.23 796,-721.35 796,-660.5 796,-660.5 796,-660.5 796,-518.25 796,-364.53 707.67,-195.67 668.89,-128.95"/>
<polygon fill="#737373" stroke="#737373" points="671.97,-127.28 663.88,-120.44 665.94,-130.83 671.97,-127.28"/>
<text text-anchor="middle" x="791.42" y="-420.7" font-family="Times,serif" font-size="14.00">6</text>
</g>
<!-- walk -->
<g id="node19" class="node">
<title>walk</title>
<path fill="linen" stroke="#595959" d="M306.5,-119C306.5,-119 257.5,-119 257.5,-119 251.5,-119 245.5,-113 245.5,-107 245.5,-107 245.5,-90 245.5,-90 245.5,-84 251.5,-78 257.5,-78 257.5,-78 306.5,-78 306.5,-78 312.5,-78 318.5,-84 318.5,-90 318.5,-90 318.5,-107 318.5,-107 318.5,-113 312.5,-119 306.5,-119"/>
<text text-anchor="middle" x="282" y="-101.7" font-family="Times,serif" font-size="14.00">walk</text>
<text text-anchor="middle" x="282" y="-85.2" font-family="Times,serif" font-size="14.00">1 modules</text>
</g>
<!-- cli&#45;&gt;walk -->
<g id="edge12" class="edge">
<title>cli&#45;&gt;walk</title>
<path fill="none" stroke="#737373" d="M426.28,-752.52C316.77,-753.09 0,-747.25 0,-660.5 0,-660.5 0,-660.5 0,-331.25 0,-211.41 153.88,-142.16 234.3,-114.16"/>
<polygon fill="#737373" stroke="#737373" points="235.36,-117.49 243.7,-110.96 233.11,-110.86 235.36,-117.49"/>
<text text-anchor="middle" x="3.38" y="-420.7" font-family="Times,serif" font-size="14.00">4</text>
</g>
<!-- errors -->
<g id="node20" class="node">
<title>errors</title>
<path fill="linen" stroke="#595959" d="M534.5,-41C534.5,-41 485.5,-41 485.5,-41 479.5,-41 473.5,-35 473.5,-29 473.5,-29 473.5,-12 473.5,-12 473.5,-6 479.5,0 485.5,0 485.5,0 534.5,0 534.5,0 540.5,0 546.5,-6 546.5,-12 546.5,-12 546.5,-29 546.5,-29 546.5,-35 540.5,-41 534.5,-41"/>
<text text-anchor="middle" x="510" y="-23.7" font-family="Times,serif" font-size="14.00">errors</text>
<text text-anchor="middle" x="510" y="-7.2" font-family="Times,serif" font-size="14.00">1 modules</text>
</g>
<!-- cli&#45;&gt;errors -->
<g id="edge5" class="edge">
<title>cli&#45;&gt;errors</title>
<path fill="none" stroke="#737373" d="M499.88,-750.79C594.24,-746.69 837,-729.43 837,-660.5 837,-660.5 837,-660.5 837,-97.5 837,-40.97 649.22,-26.47 558.25,-22.77"/>
<polygon fill="#737373" stroke="#737373" points="558.51,-19.27 548.39,-22.4 558.25,-26.27 558.51,-19.27"/>
<text text-anchor="middle" x="840.38" y="-373.95" font-family="Times,serif" font-size="14.00">8</text>
</g>
<!-- fixtures -->
<g id="node2" class="node">
<title>fixtures</title>
<path fill="linen" stroke="#595959" d="M1194.88,-773.5C1194.88,-773.5 1139.12,-773.5 1139.12,-773.5 1133.12,-773.5 1127.12,-767.5 1127.12,-761.5 1127.12,-761.5 1127.12,-744.5 1127.12,-744.5 1127.12,-738.5 1133.12,-732.5 1139.12,-732.5 1139.12,-732.5 1194.88,-732.5 1194.88,-732.5 1200.88,-732.5 1206.88,-738.5 1206.88,-744.5 1206.88,-744.5 1206.88,-761.5 1206.88,-761.5 1206.88,-767.5 1200.88,-773.5 1194.88,-773.5"/>
<text text-anchor="middle" x="1167" y="-756.2" font-family="Times,serif" font-size="14.00">fixtures</text>
<text text-anchor="middle" x="1167" y="-739.7" font-family="Times,serif" font-size="14.00">17 modules</text>
</g>
<!-- bar -->
<g id="node5" class="node">
<title>bar</title>
<path fill="linen" stroke="#595959" d="M964.5,-680C964.5,-680 915.5,-680 915.5,-680 909.5,-680 903.5,-674 903.5,-668 903.5,-668 903.5,-651 903.5,-651 903.5,-645 909.5,-639 915.5,-639 915.5,-639 964.5,-639 964.5,-639 970.5,-639 976.5,-645 976.5,-651 976.5,-651 976.5,-668 976.5,-668 976.5,-674 970.5,-680 964.5,-680"/>
<text text-anchor="middle" x="940" y="-662.7" font-family="Times,serif" font-size="14.00">bar</text>
<text text-anchor="middle" x="940" y="-646.2" font-family="Times,serif" font-size="14.00">1 modules</text>
</g>
<!-- fixtures&#45;&gt;bar -->
<g id="edge16" class="edge">
<title>fixtures&#45;&gt;bar</title>
<path fill="none" stroke="#737373" d="M1126.64,-736.24C1092.11,-722.7 1040.85,-702.43 987.06,-680.39"/>
<polygon fill="#737373" stroke="#737373" points="988.61,-677.25 978.03,-676.69 985.95,-683.72 988.61,-677.25"/>
<text text-anchor="middle" x="1073.5" y="-701.2" font-family="Times,serif" font-size="14.00">2</text>
</g>
<!-- db -->
<g id="node6" class="node">
<title>db</title>
<path fill="linen" stroke="#595959" d="M1055.5,-680C1055.5,-680 1006.5,-680 1006.5,-680 1000.5,-680 994.5,-674 994.5,-668 994.5,-668 994.5,-651 994.5,-651 994.5,-645 1000.5,-639 1006.5,-639 1006.5,-639 1055.5,-639 1055.5,-639 1061.5,-639 1067.5,-645 1067.5,-651 1067.5,-651 1067.5,-668 1067.5,-668 1067.5,-674 1061.5,-680 1055.5,-680"/>
<text text-anchor="middle" x="1031" y="-662.7" font-family="Times,serif" font-size="14.00">db</text>
<text text-anchor="middle" x="1031" y="-646.2" font-family="Times,serif" font-size="14.00">1 modules</text>
</g>
<!-- fixtures&#45;&gt;db -->
<g id="edge17" class="edge">
<title>fixtures&#45;&gt;db</title>
<path fill="none" stroke="#737373" d="M1137.49,-732.15C1117.71,-718.84 1091.45,-701.17 1069.95,-686.71"/>
<polygon fill="#737373" stroke="#737373" points="1071.96,-683.84 1061.71,-681.16 1068.05,-689.65 1071.96,-683.84"/>
</g>
<!-- foo -->
<g id="node7" class="node">
<title>foo</title>
<path fill="linen" stroke="#595959" d="M1146.5,-680C1146.5,-680 1097.5,-680 1097.5,-680 1091.5,-680 1085.5,-674 1085.5,-668 1085.5,-668 1085.5,-651 1085.5,-651 1085.5,-645 1091.5,-639 1097.5,-639 1097.5,-639 1146.5,-639 1146.5,-639 1152.5,-639 1158.5,-645 1158.5,-651 1158.5,-651 1158.5,-668 1158.5,-668 1158.5,-674 1152.5,-680 1146.5,-680"/>
<text text-anchor="middle" x="1122" y="-662.7" font-family="Times,serif" font-size="14.00">foo</text>
<text text-anchor="middle" x="1122" y="-646.2" font-family="Times,serif" font-size="14.00">1 modules</text>
</g>
<!-- fixtures&#45;&gt;foo -->
<g id="edge18" class="edge">
<title>fixtures&#45;&gt;foo</title>
<path fill="none" stroke="#737373" d="M1157.24,-732.15C1151.22,-719.92 1143.4,-704 1136.65,-690.28"/>
<polygon fill="#737373" stroke="#737373" points="1139.97,-689.1 1132.41,-681.67 1133.69,-692.19 1139.97,-689.1"/>
</g>
<!-- handler -->
<g id="node8" class="node">
<title>handler</title>
<path fill="linen" stroke="#595959" d="M1237.5,-680C1237.5,-680 1188.5,-680 1188.5,-680 1182.5,-680 1176.5,-674 1176.5,-668 1176.5,-668 1176.5,-651 1176.5,-651 1176.5,-645 1182.5,-639 1188.5,-639 1188.5,-639 1237.5,-639 1237.5,-639 1243.5,-639 1249.5,-645 1249.5,-651 1249.5,-651 1249.5,-668 1249.5,-668 1249.5,-674 1243.5,-680 1237.5,-680"/>
<text text-anchor="middle" x="1213" y="-662.7" font-family="Times,serif" font-size="14.00">handler</text>
<text text-anchor="middle" x="1213" y="-646.2" font-family="Times,serif" font-size="14.00">1 modules</text>
</g>
<!-- fixtures&#45;&gt;handler -->
<g id="edge19" class="edge">
<title>fixtures&#45;&gt;handler</title>
<path fill="none" stroke="#737373" d="M1176.98,-732.15C1183.13,-719.92 1191.13,-704 1198.03,-690.28"/>
<polygon fill="#737373" stroke="#737373" points="1200.99,-692.17 1202.36,-681.67 1194.74,-689.03 1200.99,-692.17"/>
</g>
<!-- internal -->
<g id="node9" class="node">
<title>internal</title>
<path fill="linen" stroke="#595959" d="M1328.5,-680C1328.5,-680 1279.5,-680 1279.5,-680 1273.5,-680 1267.5,-674 1267.5,-668 1267.5,-668 1267.5,-651 1267.5,-651 1267.5,-645 1273.5,-639 1279.5,-639 1279.5,-639 1328.5,-639 1328.5,-639 1334.5,-639 1340.5,-645 1340.5,-651 1340.5,-651 1340.5,-668 1340.5,-668 1340.5,-674 1334.5,-680 1328.5,-680"/>
<text text-anchor="middle" x="1304" y="-662.7" font-family="Times,serif" font-size="14.00">internal</text>
<text text-anchor="middle" x="1304" y="-646.2" font-family="Times,serif" font-size="14.00">1 modules</text>
</g>
<!-- fixtures&#45;&gt;internal -->
<g id="edge20" class="edge">
<title>fixtures&#45;&gt;internal</title>
<path fill="none" stroke="#737373" d="M1196.73,-732.15C1216.65,-718.84 1243.11,-701.17 1264.76,-686.71"/>
<polygon fill="#737373" stroke="#737373" points="1266.7,-689.62 1273.07,-681.16 1262.81,-683.8 1266.7,-689.62"/>
</g>
<!-- utils -->
<g id="node12" class="node">
<title>utils</title>
<path fill="linen" stroke="#595959" d="M1419.5,-680C1419.5,-680 1370.5,-680 1370.5,-680 1364.5,-680 1358.5,-674 1358.5,-668 1358.5,-668 1358.5,-651 1358.5,-651 1358.5,-645 1364.5,-639 1370.5,-639 1370.5,-639 1419.5,-639 1419.5,-639 1425.5,-639 1431.5,-645 1431.5,-651 1431.5,-651 1431.5,-668 1431.5,-668 1431.5,-674 1425.5,-680 1419.5,-680"/>
<text text-anchor="middle" x="1395" y="-662.7" font-family="Times,serif" font-size="14.00">utils</text>
<text text-anchor="middle" x="1395" y="-646.2" font-family="Times,serif" font-size="14.00">1 modules</text>
</g>
<!-- fixtures&#45;&gt;utils -->
<g id="edge21" class="edge">
<title>fixtures&#45;&gt;utils</title>
<path fill="none" stroke="#737373" d="M1207.14,-736.66C1242.07,-723.21 1294.29,-702.86 1347.84,-680.84"/>
<polygon fill="#737373" stroke="#737373" points="1348.9,-684.19 1356.81,-677.14 1346.23,-677.72 1348.9,-684.19"/>
</g>
<!-- git -->
<g id="node3" class="node">
<title>git</title>
<path fill="linen" stroke="#595959" d="M899.5,-773.5C899.5,-773.5 850.5,-773.5 850.5,-773.5 844.5,-773.5 838.5,-767.5 838.5,-761.5 838.5,-761.5 838.5,-744.5 838.5,-744.5 838.5,-738.5 844.5,-732.5 850.5,-732.5 850.5,-732.5 899.5,-732.5 899.5,-732.5 905.5,-732.5 911.5,-738.5 911.5,-744.5 911.5,-744.5 911.5,-761.5 911.5,-761.5 911.5,-767.5 905.5,-773.5 899.5,-773.5"/>
<text text-anchor="middle" x="875" y="-756.2" font-family="Times,serif" font-size="14.00">git</text>
<text text-anchor="middle" x="875" y="-739.7" font-family="Times,serif" font-size="14.00">1 modules</text>
</g>
<!-- git&#45;&gt;errors -->
<g id="edge22" class="edge">
<title>git&#45;&gt;errors</title>
<path fill="none" stroke="#737373" d="M875,-732.01C875,-713.47 875,-685.12 875,-660.5 875,-660.5 875,-660.5 875,-97.5 875,-33.51 657.29,-23.03 558.15,-21.57"/>
<polygon fill="#737373" stroke="#737373" points="558.22,-18.07 548.18,-21.46 558.14,-25.07 558.22,-18.07"/>
</g>
<!-- architecture&#45;&gt;graph -->
<g id="edge2" class="edge">
<title>architecture&#45;&gt;graph</title>
<path fill="none" stroke="#737373" d="M83.36,-638.63C87.6,-628.14 93.4,-615.25 100,-604.5 156.47,-512.5 179.01,-494.17 255,-417.5 258.29,-414.19 261.79,-410.79 265.32,-407.45"/>
<polygon fill="#737373" stroke="#737373" points="267.45,-410.25 272.39,-400.88 262.68,-405.12 267.45,-410.25"/>
</g>
<!-- architecture&#45;&gt;errors -->
<g id="edge1" class="edge">
<title>architecture&#45;&gt;errors</title>
<path fill="none" stroke="#737373" d="M62.5,-638.76C51.57,-620.86 38,-593.32 38,-567 38,-567 38,-567 38,-97.5 38,-54.88 341.88,-31.72 461.99,-24.24"/>
<polygon fill="#737373" stroke="#737373" points="462.08,-27.74 471.84,-23.63 461.65,-20.75 462.08,-27.74"/>
</g>
<!-- insights -->
<g id="node13" class="node">
<title>insights</title>
<path fill="linen" stroke="#595959" d="M279.5,-586.5C279.5,-586.5 230.5,-586.5 230.5,-586.5 224.5,-586.5 218.5,-580.5 218.5,-574.5 218.5,-574.5 218.5,-557.5 218.5,-557.5 218.5,-551.5 224.5,-545.5 230.5,-545.5 230.5,-545.5 279.5,-545.5 279.5,-545.5 285.5,-545.5 291.5,-551.5 291.5,-557.5 291.5,-557.5 291.5,-574.5 291.5,-574.5 291.5,-580.5 285.5,-586.5 279.5,-586.5"/>
<text text-anchor="middle" x="255" y="-569.2" font-family="Times,serif" font-size="14.00">insights</text>
<text text-anchor="middle" x="255" y="-552.7" font-family="Times,serif" font-size="14.00">1 modules</text>
</g>
<!-- output&#45;&gt;insights -->
<g id="edge33" class="edge">
<title>output&#45;&gt;insights</title>
<path fill="none" stroke="#737373" d="M255,-638.65C255,-626.78 255,-611.44 255,-598"/>
<polygon fill="#737373" stroke="#737373" points="258.5,-598.33 255,-588.33 251.5,-598.33 258.5,-598.33"/>
<text text-anchor="middle" x="258.38" y="-607.7" font-family="Times,serif" font-size="14.00">2</text>
</g>
<!-- output&#45;&gt;metrics -->
<g id="edge34" class="edge">
<title>output&#45;&gt;metrics</title>
<path fill="none" stroke="#737373" d="M291.91,-647.96C306.71,-642.12 322.86,-633.44 334,-621 363.54,-588.01 376.15,-537.03 381.4,-504.47"/>
<polygon fill="#737373" stroke="#737373" points="384.82,-505.28 382.81,-494.87 377.9,-504.26 384.82,-505.28"/>
<text text-anchor="middle" x="375.32" y="-560.95" font-family="Times,serif" font-size="14.00">5</text>
</g>
<!-- output&#45;&gt;graph -->
<g id="edge32" class="edge">
<title>output&#45;&gt;graph</title>
<path fill="none" stroke="#737373" d="M237.88,-638.63C227.29,-624.97 214.66,-605.86 209,-586.5 203.89,-569.01 204.63,-563.19 209,-545.5 221.76,-493.81 253.89,-440.41 275.32,-408.72"/>
<polygon fill="#737373" stroke="#737373" points="277.95,-411.07 280.74,-400.85 272.19,-407.1 277.95,-411.07"/>
<text text-anchor="middle" x="223.06" y="-514.2" font-family="Times,serif" font-size="14.00">6</text>
</g>
<!-- output&#45;&gt;parse -->
<g id="edge35" class="edge">
<title>output&#45;&gt;parse</title>
<path fill="none" stroke="#737373" d="M269.58,-638.55C279.27,-624.54 291.7,-605.07 300,-586.5 325.4,-529.68 312,-508.08 339,-452 364.15,-399.77 405.38,-346.23 431.58,-314.69"/>
<polygon fill="#737373" stroke="#737373" points="434.14,-317.08 437.9,-307.17 428.79,-312.58 434.14,-317.08"/>
</g>
<!-- output&#45;&gt;walk -->
<g id="edge36" class="edge">
<title>output&#45;&gt;walk</title>
<path fill="none" stroke="#737373" d="M227.69,-638.69C221.89,-633.46 216.24,-627.46 212,-621 193.38,-592.66 197.96,-579.27 201,-545.5 215.21,-387.73 257.15,-202.32 274.43,-130.28"/>
<polygon fill="#737373" stroke="#737373" points="277.78,-131.34 276.72,-120.8 270.97,-129.7 277.78,-131.34"/>
</g>
<!-- output&#45;&gt;errors -->
<g id="edge31" class="edge">
<title>output&#45;&gt;errors</title>
<path fill="none" stroke="#737373" d="M219.79,-638.67C212.39,-633.52 205.01,-627.55 199,-621 132.39,-548.35 92,-525.31 92,-426.75 92,-426.75 92,-426.75 92,-97.5 92,-60.27 351.98,-34.49 461.88,-25.26"/>
<polygon fill="#737373" stroke="#737373" points="462.09,-28.76 471.76,-24.44 461.51,-21.78 462.09,-28.76"/>
<text text-anchor="middle" x="95.38" y="-327.2" font-family="Times,serif" font-size="14.00">4</text>
</g>
<!-- quality&#45;&gt;metrics -->
<g id="edge42" class="edge">
<title>quality&#45;&gt;metrics</title>
<path fill="none" stroke="#737373" d="M572.25,-638.61C564.57,-633.07 556.36,-626.94 549,-621 499.74,-581.28 445.75,-531.39 413.65,-501"/>
<polygon fill="#737373" stroke="#737373" points="416.35,-498.73 406.69,-494.38 411.53,-503.81 416.35,-498.73"/>
<text text-anchor="middle" x="511.15" y="-560.95" font-family="Times,serif" font-size="14.00">3</text>
</g>
<!-- quality&#45;&gt;graph -->
<g id="edge41" class="edge">
<title>quality&#45;&gt;graph</title>
<path fill="none" stroke="#737373" d="M593.5,-638.68C591.37,-632.98 589.07,-626.76 587,-621 551.26,-521.54 555.38,-470.59 464,-417.5 427.2,-396.12 379.36,-386.92 344.15,-382.97"/>
<polygon fill="#737373" stroke="#737373" points="344.53,-379.49 334.23,-381.97 343.83,-386.46 344.53,-379.49"/>
</g>
<!-- quality&#45;&gt;parse -->
<g id="edge43" class="edge">
<title>quality&#45;&gt;parse</title>
<path fill="none" stroke="#737373" d="M604.02,-638.55C611.36,-582.31 624.35,-420.29 548,-324 537.73,-311.04 522.24,-302.53 506.89,-296.95"/>
<polygon fill="#737373" stroke="#737373" points="508.39,-293.76 497.8,-294.01 506.23,-300.42 508.39,-293.76"/>
<text text-anchor="middle" x="610.43" y="-467.45" font-family="Times,serif" font-size="14.00">5</text>
</g>
<!-- quality&#45;&gt;config -->
<g id="edge39" class="edge">
<title>quality&#45;&gt;config</title>
<path fill="none" stroke="#737373" d="M638.07,-638.63C644.08,-633.7 649.48,-627.83 653,-621 706.43,-517.28 687.79,-469.22 651,-358.5 633.23,-305.01 593.12,-252.57 566.3,-221.51"/>
<polygon fill="#737373" stroke="#737373" points="569.02,-219.3 559.78,-214.1 563.76,-223.92 569.02,-219.3"/>
</g>
<!-- quality&#45;&gt;walk -->
<g id="edge44" class="edge">
<title>quality&#45;&gt;walk</title>
<path fill="none" stroke="#737373" d="M613.68,-638.54C616.59,-633.06 619.32,-626.97 621,-621 625.98,-603.29 623.8,-529.97 623,-511 618.05,-393.91 596.66,-184.71 585,-171.5 551.73,-133.81 406.92,-112.89 330.17,-104.26"/>
<polygon fill="#737373" stroke="#737373" points="330.74,-100.8 320.41,-103.19 329.97,-107.76 330.74,-100.8"/>
<text text-anchor="middle" x="619.07" y="-373.95" font-family="Times,serif" font-size="14.00">6</text>
</g>
<!-- quality&#45;&gt;errors -->
<g id="edge40" class="edge">
<title>quality&#45;&gt;errors</title>
<path fill="none" stroke="#737373" d="M641.19,-644.98C674.01,-631.09 715,-605.96 715,-567 715,-567 715,-567 715,-378 715,-316.55 716,-301.2 716,-239.75 716,-239.75 716,-239.75 716,-97.5 716,-64.02 618.99,-40.7 558.11,-29.36"/>
<polygon fill="#737373" stroke="#737373" points="558.78,-25.93 548.32,-27.59 557.53,-32.81 558.78,-25.93"/>
<text text-anchor="middle" x="718.67" y="-327.2" font-family="Times,serif" font-size="14.00">4</text>
</g>
<!-- insights&#45;&gt;metrics -->
<g id="edge29" class="edge">
<title>insights&#45;&gt;metrics</title>
<path fill="none" stroke="#737373" d="M283.21,-545.15C302.03,-531.9 326.99,-514.33 347.49,-499.9"/>
<polygon fill="#737373" stroke="#737373" points="349.45,-502.8 355.61,-494.19 345.42,-497.08 349.45,-502.8"/>
<text text-anchor="middle" x="335.02" y="-514.2" font-family="Times,serif" font-size="14.00">4</text>
</g>
<!-- insights&#45;&gt;graph -->
<g id="edge28" class="edge">
<title>insights&#45;&gt;graph</title>
<path fill="none" stroke="#737373" d="M259.39,-545.2C266.52,-513.02 280.68,-449.11 289.15,-410.9"/>
<polygon fill="#737373" stroke="#737373" points="292.51,-411.93 291.25,-401.41 285.67,-410.42 292.51,-411.93"/>
</g>
<!-- insights&#45;&gt;config -->
<g id="edge27" class="edge">
<title>insights&#45;&gt;config</title>
<path fill="none" stroke="#737373" d="M249.41,-545.25C239.76,-507.32 223.43,-422.41 250,-358.5 290.67,-260.69 421.02,-218.19 492.32,-201.88"/>
<polygon fill="#737373" stroke="#737373" points="492.74,-205.37 501.75,-199.8 491.23,-198.53 492.74,-205.37"/>
</g>
<!-- metrics&#45;&gt;graph -->
<g id="edge30" class="edge">
<title>metrics&#45;&gt;graph</title>
<path fill="none" stroke="#737373" d="M365.69,-451.65C353.21,-438.82 336.79,-421.94 323.02,-407.78"/>
<polygon fill="#737373" stroke="#737373" points="325.81,-405.63 316.33,-400.9 320.79,-410.51 325.81,-405.63"/>
<text text-anchor="middle" x="351.85" y="-420.7" font-family="Times,serif" font-size="14.00">4</text>
</g>
<!-- graph&#45;&gt;parse -->
<g id="edge25" class="edge">
<title>graph&#45;&gt;parse</title>
<path fill="none" stroke="#737373" d="M312.84,-358.12C323.25,-346.86 337.42,-333.22 352.25,-324 368.42,-313.96 387.67,-306.06 405.17,-300.16"/>
<polygon fill="#737373" stroke="#737373" points="405.91,-303.59 414.36,-297.2 403.76,-296.93 405.91,-303.59"/>
<text text-anchor="middle" x="355.62" y="-327.2" font-family="Times,serif" font-size="14.00">8</text>
</g>
<!-- graph&#45;&gt;config -->
<g id="edge23" class="edge">
<title>graph&#45;&gt;config</title>
<path fill="none" stroke="#737373" d="M306.27,-358.09C312.34,-347.35 320.67,-334.23 330,-324 376.21,-273.34 446.4,-234.94 492.73,-213.19"/>
<polygon fill="#737373" stroke="#737373" points="494.1,-216.41 501.72,-209.05 491.17,-210.06 494.1,-216.41"/>
</g>
<!-- graph&#45;&gt;walk -->
<g id="edge26" class="edge">
<title>graph&#45;&gt;walk</title>
<path fill="none" stroke="#737373" d="M295.02,-358.42C292.62,-310.79 286.48,-188.6 283.57,-130.75"/>
<polygon fill="#737373" stroke="#737373" points="287.08,-130.76 283.08,-120.95 280.08,-131.11 287.08,-130.76"/>
<text text-anchor="middle" x="292.7" y="-233.7" font-family="Times,serif" font-size="14.00">3</text>
</g>
<!-- graph&#45;&gt;errors -->
<g id="edge24" class="edge">
<title>graph&#45;&gt;errors</title>
<path fill="none" stroke="#737373" d="M282.37,-358.23C248.25,-306.08 166.72,-163.03 236,-78 263.97,-43.67 391.12,-29.58 461.96,-24.31"/>
<polygon fill="#737373" stroke="#737373" points="462,-27.82 471.73,-23.62 461.51,-20.84 462,-27.82"/>
</g>
<!-- parse&#45;&gt;config -->
<g id="edge37" class="edge">
<title>parse&#45;&gt;config</title>
<path fill="none" stroke="#737373" d="M474.23,-264.65C485.89,-251.94 501.21,-235.25 514.13,-221.18"/>
<polygon fill="#737373" stroke="#737373" points="516.6,-223.66 520.79,-213.93 511.44,-218.93 516.6,-223.66"/>
</g>
<!-- parse&#45;&gt;walk -->
<g id="edge38" class="edge">
<title>parse&#45;&gt;walk</title>
<path fill="none" stroke="#737373" d="M437.38,-264.7C406.33,-231.68 343.87,-165.28 308.33,-127.49"/>
<polygon fill="#737373" stroke="#737373" points="311.19,-125.42 301.79,-120.54 306.09,-130.22 311.19,-125.42"/>
</g>
<!-- config&#45;&gt;formats -->
<g id="edge14" class="edge">
<title>config&#45;&gt;formats</title>
<path fill="none" stroke="#737373" d="M575.3,-171.03C583.69,-165.72 592.4,-159.73 600,-153.5 609.35,-145.84 618.69,-136.55 626.78,-127.85"/>
<polygon fill="#737373" stroke="#737373" points="629.27,-130.31 633.38,-120.55 624.08,-125.61 629.27,-130.31"/>
<text text-anchor="middle" x="619.95" y="-140.2" font-family="Times,serif" font-size="14.00">2</text>
</g>
<!-- config&#45;&gt;walk -->
<g id="edge15" class="edge">
<title>config&#45;&gt;walk</title>
<path fill="none" stroke="#737373" d="M503.03,-177.89C457.34,-161.69 379.5,-134.08 329.44,-116.33"/>
<polygon fill="#737373" stroke="#737373" points="330.92,-113.14 320.32,-113.09 328.58,-119.73 330.92,-113.14"/>
<text text-anchor="middle" x="437.48" y="-140.2" font-family="Times,serif" font-size="14.00">2</text>
</g>
<!-- config&#45;&gt;errors -->
<g id="edge13" class="edge">
<title>config&#45;&gt;errors</title>
<path fill="none" stroke="#737373" d="M536.5,-171.22C531.34,-142.09 521.65,-87.34 515.53,-52.74"/>
<polygon fill="#737373" stroke="#737373" points="518.98,-52.14 513.79,-42.9 512.08,-53.36 518.98,-52.14"/>
</g>
<!-- walk&#45;&gt;errors -->
<g id="edge45" class="edge">
<title>walk&#45;&gt;errors</title>
<path fill="none" stroke="#737373" d="M318.89,-85.2C357.96,-72.18 419.78,-51.57 462.48,-37.34"/>
<polygon fill="#737373" stroke="#737373" points="463.35,-40.74 471.73,-34.26 461.14,-34.1 463.35,-40.74"/>
</g>
</g>
</svg>
